<?xml version="1.0" encoding="utf-8"?><svg version="1.1" id="Layer_1" xmlns="http://www.w3.org/2000/svg" xmlns:xlink="http://www.w3.org/1999/xlink" x="0px" y="0px" width="122.879px" height="106.533px" viewBox="0 0 122.879 106.533" enable-background="new 0 0 122.879 106.533" xml:space="preserve"><g><path d="M79.704,105.239c-1.2,1.072-3.042,0.971-4.115-0.229c-1.073-1.2-0.971-3.042,0.229-4.115l39.432-35.204l0.012-0.01v-0.001 c0.569-0.503,0.995-1.045,1.281-1.629c0.281-0.574,0.443-1.229,0.487-1.963c0.044-0.732-0.041-1.404-0.255-2.016 c-0.213-0.605-0.572-1.192-1.077-1.761l-0.048-0.055L70.895,9.569c-1.092-1.187-1.015-3.035,0.172-4.126s3.034-1.015,4.126,0.172 l44.758,48.693c0.038,0.039,0.075,0.078,0.112,0.119c1.004,1.127,1.744,2.37,2.22,3.727c0.474,1.352,0.665,2.777,0.575,4.277 c-0.09,1.497-0.448,2.89-1.081,4.182c-0.629,1.283-1.512,2.427-2.653,3.435l-0.001-0.001L79.704,105.239L79.704,105.239z M54.383,3.131h0.738v0.006c0.788,0,1.574,0.317,2.149,0.942l44.758,48.694c0.038,0.039,0.075,0.078,0.111,0.119 c1.005,1.128,1.745,2.37,2.221,3.727c0.474,1.352,0.665,2.777,0.575,4.278c-0.091,1.496-0.449,2.89-1.082,4.181 c-0.628,1.283-1.511,2.427-2.653,3.435v-0.001l-39.291,35.077c-0.026,0.028-0.055,0.055-0.083,0.082 c-1.113,1.032-2.346,1.787-3.698,2.266c-1.34,0.474-2.774,0.666-4.302,0.575c-1.53-0.091-2.936-0.451-4.219-1.076 c-1.287-0.628-2.435-1.511-3.447-2.647l-42.083-47.2l0.001-0.001c-0.505-0.567-0.79-1.33-0.732-2.147l0.086-1.181L0.006,3.114h0 c-0.008-0.124-0.009-0.25,0-0.377c0.101-1.609,1.487-2.833,3.097-2.731L53.451,3.22c0.063-0.01,0.127-0.02,0.192-0.028 C53.934,3.151,54.182,3.131,54.383,3.131L54.383,3.131z M53.922,9.068c-0.195,0.019-0.389,0.018-0.579-0.002L6.066,6.047 l3.208,46.027c0.009,0.135,0.009,0.269-0.001,0.4h0.001l-0.011,0.148l41.261,46.28c0.498,0.559,1.045,0.984,1.642,1.275 c0.6,0.292,1.267,0.462,2.001,0.505c0.738,0.044,1.41-0.042,2.016-0.256c0.594-0.21,1.149-0.554,1.663-1.031 c0.059-0.055,0.12-0.106,0.182-0.155l39.296-35.082l0.012-0.011l-0.001-0.001c0.569-0.502,0.996-1.045,1.281-1.628 c0.282-0.575,0.443-1.229,0.488-1.964c0.044-0.732-0.042-1.404-0.256-2.016c-0.213-0.605-0.571-1.192-1.077-1.761l-0.048-0.055 L53.922,9.068L53.922,9.068z M24.268,12.234c1.474,0.04,2.833,0.335,4.078,0.885c1.256,0.555,2.392,1.36,3.406,2.413l0.013,0.015 c1.006,1.042,1.766,2.204,2.278,3.485c0.519,1.298,0.779,2.68,0.779,4.145c0,0.127-0.008,0.252-0.024,0.375 c-0.071,1.347-0.37,2.605-0.895,3.772l-0.005,0.01l0.005,0.002c-0.563,1.251-1.38,2.386-2.446,3.404 c-0.063,0.06-0.128,0.117-0.195,0.17c-1.023,0.923-2.145,1.621-3.363,2.09c-1.271,0.489-2.614,0.72-4.031,0.69v0.01 c-1.463,0-2.838-0.278-4.123-0.832c-1.265-0.544-2.419-1.354-3.459-2.424l-0.012-0.012v0c-1.028-1.067-1.796-2.246-2.304-3.537 c-0.504-1.285-0.738-2.663-0.698-4.133c0.039-1.495,0.334-2.873,0.892-4.135c0.564-1.278,1.387-2.43,2.473-3.457 c1.058-1,2.232-1.75,3.521-2.247S22.818,12.195,24.268,12.234L24.268,12.234z M25.991,18.468c-0.57-0.251-1.19-0.387-1.86-0.405 c-0.681-0.019-1.305,0.082-1.87,0.3c-0.568,0.22-1.11,0.573-1.625,1.059c-0.5,0.472-0.874,0.992-1.124,1.56 c-0.257,0.582-0.394,1.222-0.412,1.918c-0.019,0.674,0.085,1.297,0.31,1.869c0.224,0.571,0.582,1.11,1.069,1.617l0,0 c0.485,0.497,1.01,0.867,1.574,1.109c0.543,0.234,1.148,0.351,1.814,0.351v0.011l0.069,0.001c0.688,0.019,1.315-0.082,1.882-0.3 c0.528-0.203,1.032-0.518,1.512-0.943c0.033-0.036,0.068-0.07,0.104-0.104c0.506-0.483,0.888-1.009,1.143-1.576l0.004,0.002 c0.224-0.502,0.355-1.047,0.392-1.636c-0.002-0.041-0.003-0.083-0.003-0.125c0-0.74-0.115-1.398-0.345-1.973 c-0.231-0.579-0.586-1.115-1.063-1.607l-0.018-0.018C27.072,19.087,26.554,18.717,25.991,18.468L25.991,18.468z M52.422,31.36 c-1.092-1.187-1.015-3.035,0.171-4.126c1.187-1.092,3.034-1.015,4.126,0.172l24.931,27.04c1.092,1.187,1.015,3.034-0.172,4.126 s-3.034,1.016-4.126-0.172L52.422,31.36L52.422,31.36z M40.49,42.661c-1.092-1.187-1.015-3.034,0.171-4.126 c1.187-1.092,3.034-1.016,4.126,0.171l24.931,27.04c1.092,1.187,1.015,3.034-0.172,4.126c-1.188,1.092-3.035,1.016-4.127-0.171 L40.49,42.661L40.49,42.661z M28.074,53.962c-1.092-1.187-1.015-3.035,0.171-4.126c1.187-1.092,3.035-1.015,4.126,0.171 l24.931,27.04c1.092,1.188,1.016,3.034-0.171,4.126s-3.034,1.016-4.126-0.171L28.074,53.962L28.074,53.962z"/></g></svg>